<mxfile host="57c10d73-a672-42a5-b48a-1747c0af25a7" modified="2021-01-26T23:22:45.397Z" agent="5.0 (Windows NT 10.0; Win64; x64) AppleWebKit/537.36 (KHTML, like Gecko) Code/1.51.0 Chrome/83.0.4103.122 Electron/9.3.3 Safari/537.36" etag="IBbgyyBWxslZ-NwXdcig" version="13.10.0" type="embed"><diagram id="RAtAKVSGtvp2yvZ8-tFf" name="Page-1"><mxGraphModel dx="1143" dy="709" grid="0" gridSize="10" guides="1" tooltips="1" connect="1" arrows="1" fold="1" page="1" pageScale="1" pageWidth="850" pageHeight="1100" background="#171717" math="0" shadow="0"><root><mxCell id="0"/><mxCell id="1" parent="0"/><mxCell id="2" value="QREADS Webservice&lt;br&gt;(port 9780)" style="rounded=1;whiteSpace=wrap;html=1;" parent="1" vertex="1"><mxGeometry x="330" y="250" width="120" height="60" as="geometry"/></mxCell><mxCell id="3" value="EPIC" style="rounded=1;whiteSpace=wrap;html=1;" parent="1" vertex="1"><mxGeometry x="90" y="250" width="120" height="60" as="geometry"/></mxCell><mxCell id="4" value="" style="endArrow=classic;html=1;exitX=1;exitY=0.5;exitDx=0;exitDy=0;entryX=0;entryY=0.5;entryDx=0;entryDy=0;" parent="1" source="3" target="2" edge="1"><mxGeometry width="50" height="50" relative="1" as="geometry"><mxPoint x="290" y="390" as="sourcePoint"/><mxPoint x="340" y="340" as="targetPoint"/></mxGeometry></mxCell><mxCell id="5" value="QREADS - EPIC" style="rounded=1;whiteSpace=wrap;html=1;" parent="1" vertex="1"><mxGeometry x="330" y="410" width="120" height="60" as="geometry"/></mxCell><mxCell id="6" value="MayoDock&lt;br&gt;QREADS&lt;br&gt;EPIC&lt;br&gt;" style="rounded=1;whiteSpace=wrap;html=1;" parent="1" vertex="1"><mxGeometry x="330" y="40" width="120" height="60" as="geometry"/></mxCell><mxCell id="7" value="" style="endArrow=classic;html=1;exitX=0.5;exitY=1;exitDx=0;exitDy=0;entryX=0.5;entryY=0;entryDx=0;entryDy=0;" parent="1" source="2" target="5" edge="1"><mxGeometry width="50" height="50" relative="1" as="geometry"><mxPoint x="400" y="590" as="sourcePoint"/><mxPoint x="450" y="540" as="targetPoint"/></mxGeometry></mxCell><mxCell id="8" value="" style="endArrow=classic;html=1;exitX=0.25;exitY=1;exitDx=0;exitDy=0;entryX=0.5;entryY=0;entryDx=0;entryDy=0;" parent="1" source="6" target="3" edge="1"><mxGeometry width="50" height="50" relative="1" as="geometry"><mxPoint x="190" y="190" as="sourcePoint"/><mxPoint x="240" y="140" as="targetPoint"/></mxGeometry></mxCell><mxCell id="9" value="" style="endArrow=classic;html=1;exitX=0.75;exitY=1;exitDx=0;exitDy=0;entryX=0.5;entryY=0;entryDx=0;entryDy=0;" parent="1" source="6" target="10" edge="1"><mxGeometry width="50" height="50" relative="1" as="geometry"><mxPoint x="370" y="110" as="sourcePoint"/><mxPoint x="720" y="250" as="targetPoint"/></mxGeometry></mxCell><mxCell id="10" value="QREADS" style="rounded=1;whiteSpace=wrap;html=1;" parent="1" vertex="1"><mxGeometry x="570" y="250" width="120" height="60" as="geometry"/></mxCell><mxCell id="14" value="User - Login" style="text;html=1;strokeColor=none;fillColor=none;align=center;verticalAlign=middle;whiteSpace=wrap;rounded=0;" parent="1" vertex="1"><mxGeometry x="160" y="545" width="120" height="20" as="geometry"/></mxCell><mxCell id="15" value="&lt;ul&gt;&lt;li&gt;New Instance of QREADS Webserice&lt;/li&gt;&lt;li&gt;New Instance of EPIC&lt;/li&gt;&lt;/ul&gt;" style="text;html=1;strokeColor=none;fillColor=none;align=left;verticalAlign=middle;whiteSpace=wrap;rounded=0;" parent="1" vertex="1"><mxGeometry x="100" y="565" width="260" height="60" as="geometry"/></mxCell><mxCell id="17" value="User - Switch" style="text;html=1;strokeColor=none;fillColor=none;align=center;verticalAlign=middle;whiteSpace=wrap;rounded=0;" parent="1" vertex="1"><mxGeometry x="530" y="545" width="120" height="20" as="geometry"/></mxCell><mxCell id="18" value="&lt;ul&gt;&lt;li&gt;Check if&amp;nbsp; QREADS Webservice is running. If found, noaction.&amp;nbsp; If not found, start new instance of QREADS webservice&amp;nbsp;&lt;/li&gt;&lt;/ul&gt;" style="text;html=1;strokeColor=none;fillColor=none;align=left;verticalAlign=middle;whiteSpace=wrap;rounded=0;" parent="1" vertex="1"><mxGeometry x="450" y="570" width="270" height="70" as="geometry"/></mxCell></root></mxGraphModel></diagram></mxfile>